<svg viewBox="0 0 485 445" fill="none" xmlns="http://www.w3.org/2000/svg">
<path d="M181.389 419.557C188.319 419.403 195.161 419.12 201.913 418.707C214.674 417.929 227.054 416.714 239.053 415.061M46.2805 378.987C53.8966 381.706 62.0056 384.177 70.5389 386.372C97.0091 393.179 127.563 397.318 160.163 397.869C183.744 398.329 207.33 396.738 230.655 393.112C245.689 390.782 260.532 387.322 275.058 382.761M267.242 254.183C237.786 245.02 202.102 239.353 163.559 238.701C119.673 237.959 79.2135 243.839 47.2473 254.267M146.923 218.805C116.227 219.251 87.1211 222.27 60.7559 227.393" stroke="#203C44" stroke-miterlimit="10"/>
<path d="M460.348 434.555L449.565 434.554L444.437 392.938L460.352 392.94L460.348 434.555Z" fill="#F4FDFF"/>
<path d="M441.862 431.471H462.659V444.573H428.767C428.767 442.852 429.106 441.149 429.764 439.559C430.422 437.969 431.387 436.525 432.603 435.309C433.819 434.092 435.262 433.127 436.851 432.469C438.44 431.81 440.142 431.471 441.862 431.471Z" fill="#203C44"/>
<path d="M417.429 434.555L406.645 434.554L401.518 392.938L417.433 392.94L417.429 434.555Z" fill="#F4FDFF"/>
<path d="M398.942 431.471H419.74V444.573H385.848C385.848 442.852 386.187 441.149 386.845 439.559C387.503 437.969 388.467 436.525 389.683 435.309C390.899 434.092 392.343 433.127 393.931 432.469C395.52 431.81 397.223 431.471 398.942 431.471Z" fill="#203C44"/>
<path d="M468.655 290.677C467.787 289.718 467.14 288.58 466.759 287.344C466.379 286.108 466.273 284.803 466.451 283.521C466.629 282.24 467.085 281.013 467.788 279.927C468.491 278.841 469.423 277.923 470.519 277.236L467.179 257.291L478.799 252.304L483.12 280.537C484.15 282.455 484.442 284.686 483.938 286.805C483.435 288.924 482.172 290.785 480.389 292.035C478.606 293.285 476.427 293.837 474.264 293.587C472.102 293.337 470.106 292.301 468.655 290.677V290.677Z" fill="#F4FDFF"/>
<path d="M377.688 281.253C378.702 280.451 379.528 279.435 380.108 278.279C380.688 277.123 381.007 275.853 381.044 274.56C381.08 273.267 380.832 271.981 380.318 270.794C379.805 269.607 379.037 268.547 378.069 267.688L384.656 248.57L374.02 241.731L365.097 268.861C363.764 270.583 363.108 272.735 363.255 274.908C363.401 277.081 364.339 279.125 365.891 280.653C367.443 282.18 369.501 283.085 371.675 283.196C373.85 283.306 375.989 282.615 377.688 281.253V281.253Z" fill="#F4FDFF"/>
<path d="M432.917 146.695C445.713 146.695 456.085 136.317 456.085 123.515C456.085 110.714 445.713 100.336 432.917 100.336C420.122 100.336 409.75 110.714 409.75 123.515C409.75 136.317 420.122 146.695 432.917 146.695Z" fill="#F4FDFF"/>
<path d="M445.991 142.955L433.118 143.184C431.778 143.21 430.449 142.921 429.241 142.339C428.032 141.758 426.977 140.9 426.161 139.836C425.344 138.772 424.789 137.53 424.54 136.212C424.291 134.893 424.355 133.535 424.727 132.246C425.002 131.314 425.209 130.364 425.345 129.402C425.49 128.354 425.519 127.292 425.43 126.237C425.349 125.181 424.911 124.184 424.188 123.409C423.466 122.634 422.502 122.128 421.454 121.974C420.407 121.819 419.338 122.026 418.423 122.559C417.507 123.092 416.8 123.92 416.418 124.908C414.253 124.939 409.642 124.233 407.478 124.264C402.882 112.476 412.897 97.0519 423.677 91.2584C434.668 85.3523 448.934 91.361 453.147 103.671C458.994 103.776 463.744 109.545 464.498 116.04C465.251 122.535 462.58 129.316 458.495 134.294C454.41 139.272 449.046 142.9 445.991 142.955Z" fill="#203C44"/>
<path d="M403.678 430.67C402.635 430.664 401.63 430.276 400.854 429.578C400.079 428.881 399.586 427.922 399.469 426.886L394.693 266.223L454.862 270.508L454.908 270.895C468.505 384.773 463.857 424.193 463.809 424.578C463.775 425.16 463.622 425.73 463.359 426.251C463.096 426.771 462.728 427.232 462.279 427.605C461.83 427.977 461.308 428.252 460.748 428.414C460.187 428.576 459.6 428.62 459.021 428.544L445.724 428.863C444.716 428.749 443.782 428.277 443.092 427.533C442.402 426.79 442.001 425.823 441.962 424.809L429.537 308.442C429.46 308.14 429.28 307.874 429.027 307.692C428.774 307.51 428.465 307.423 428.154 307.445C427.834 307.444 427.524 307.555 427.276 307.757C427.029 307.96 426.859 308.242 426.797 308.556L421.997 425.304C422.048 426.388 421.681 427.45 420.971 428.27C420.262 429.09 419.264 429.607 418.185 429.712L404.099 430.649C403.959 430.663 403.818 430.67 403.678 430.67Z" fill="#203C44"/>
<path d="M376.971 266.949C376.574 266.949 376.179 266.893 375.797 266.783L369.044 264.843C367.966 264.532 367.054 263.806 366.509 262.824C365.963 261.843 365.828 260.685 366.132 259.604L380.067 210.375L399.501 162.644C401.433 157.899 405.47 154.787 410.037 154.523C412.123 154.421 414.193 154.926 415.998 155.978C417.802 157.029 419.263 158.581 420.204 160.447V160.447C421.249 162.443 421.823 164.653 421.881 166.906C421.94 169.159 421.481 171.395 420.54 173.443L398.452 221.774L380.891 264.322C380.571 265.099 380.028 265.764 379.33 266.231C378.632 266.699 377.811 266.949 376.971 266.949V266.949Z" fill="#FF7A7A"/>
<path d="M428.645 285.42C428.285 285.42 427.925 285.414 427.565 285.403C410.263 284.882 396.727 271.785 392.991 267.784C392.515 267.273 392.173 266.653 391.995 265.978C391.817 265.304 391.809 264.595 391.971 263.917L401.952 221.67L399.304 184.941C398.888 179.844 399.556 174.716 401.264 169.895C402.972 165.075 405.682 160.671 409.214 156.974C412.157 153.863 415.734 151.422 419.703 149.815C423.672 148.209 427.94 147.475 432.217 147.663C449.059 148.467 462.347 163.529 462.467 181.953C462.653 210.487 461.813 212.448 461.538 213.092C453.132 232.719 457.723 260.27 459.33 268.247C459.474 268.959 459.433 269.695 459.212 270.387C458.992 271.079 458.598 271.702 458.069 272.199C448.824 280.975 438.93 285.419 428.645 285.42Z" fill="#FF7A7A"/>
<path d="M472.096 274.681C471.136 274.68 470.205 274.353 469.454 273.754C468.704 273.155 468.179 272.319 467.965 271.383L457.667 226.5L443.866 175.199C443.277 173.024 443.194 170.742 443.623 168.53C444.053 166.318 444.984 164.233 446.344 162.437C447.581 160.754 449.278 159.465 451.231 158.726C453.184 157.988 455.309 157.831 457.349 158.275C461.81 159.291 465.278 163.027 466.4 168.026L477.677 218.262L483.301 269.17C483.422 270.287 483.097 271.406 482.397 272.283C481.697 273.161 480.678 273.726 479.563 273.856L472.583 274.653C472.421 274.671 472.259 274.681 472.096 274.681V274.681Z" fill="#FF7A7A"/>
<g filter="url(#filter0_dddd)">
<path d="M318.734 131C316.745 131 314.838 131.79 313.431 133.197C312.025 134.603 311.234 136.511 311.234 138.5C311.234 140.489 312.025 142.397 313.431 143.803C314.838 145.21 316.745 146 318.734 146C320.723 146 322.631 145.21 324.038 143.803C325.444 142.397 326.234 140.489 326.234 138.5C326.234 136.511 325.444 134.603 324.038 133.197C322.631 131.79 320.724 131 318.734 131Z" fill="#409B8B"/>
</g>
<path d="M30.8804 5C26.8379 5 22.961 6.60671 20.1025 9.46667C17.2441 12.3266 15.6382 16.2056 15.6382 20.2502C15.6382 24.2948 17.2441 28.1737 20.1025 31.0337C22.961 33.8937 26.8379 35.5004 30.8804 35.5004H263.434C267.476 35.5004 271.353 33.8937 274.211 31.0337C277.07 28.1737 278.676 24.2948 278.676 20.2502C278.676 16.2056 277.07 12.3266 274.211 9.46667C271.353 6.60671 267.476 5 263.434 5H30.8804Z" fill="#F4FDFF"/>
<g filter="url(#filter1_dddd)">
<path d="M318.734 13C316.745 13 314.838 13.7902 313.431 15.1967C312.025 16.6032 311.234 18.5108 311.234 20.5C311.234 22.4891 312.025 24.3968 313.431 25.8033C314.838 27.2098 316.745 28 318.734 28H318.734C320.724 28 322.631 27.2098 324.038 25.8033C325.444 24.3968 326.234 22.4891 326.234 20.5C326.234 18.5109 325.444 16.6032 324.038 15.1967C322.631 13.7902 320.724 13 318.734 13V13Z" fill="#FF7A7A"/>
</g>
<path d="M30.8804 63C26.8379 63 22.961 64.6067 20.1025 67.4667C17.2441 70.3267 15.6382 74.2056 15.6382 78.2502C15.6382 82.2948 17.2441 86.1737 20.1025 89.0337C22.961 91.8937 26.8379 93.5004 30.8804 93.5004H263.434C267.476 93.5004 271.353 91.8937 274.211 89.0337C277.07 86.1737 278.676 82.2948 278.676 78.2502C278.676 74.2056 277.07 70.3267 274.211 67.4667C271.353 64.6067 267.476 63 263.434 63H30.8804Z" fill="#F4FDFF"/>
<g filter="url(#filter2_dddd)">
<path d="M318.734 71C316.745 71 314.838 71.7902 313.431 73.1967C312.025 74.6032 311.234 76.5109 311.234 78.5C311.234 80.4891 312.025 82.3968 313.431 83.8033C314.838 85.2098 316.745 86 318.734 86C320.723 86 322.631 85.2098 324.038 83.8033C325.444 82.3968 326.234 80.4891 326.234 78.5C326.234 76.5109 325.444 74.6032 324.038 73.1967C322.631 71.7902 320.724 71 318.734 71Z" fill="#FF7A7A"/>
</g>
<path d="M30.8804 123C26.8379 123 22.961 124.607 20.1025 127.467C17.2441 130.327 15.6382 134.206 15.6382 138.25C15.6382 142.295 17.2441 146.174 20.1025 149.034C22.961 151.894 26.8379 153.5 30.8804 153.5H263.434C267.476 153.5 271.353 151.894 274.211 149.034C277.07 146.174 278.676 142.295 278.676 138.25C278.676 134.206 277.07 130.327 274.211 127.467C271.353 124.607 267.476 123 263.434 123H30.8804Z" fill="#F4FDFF"/>
<g filter="url(#filter3_dddd)">
<path d="M310.734 363.999C308.745 363.999 306.838 364.789 305.431 366.195C304.025 367.602 303.234 369.51 303.234 371.499C303.234 373.488 304.025 375.396 305.431 376.802C306.838 378.209 308.745 378.999 310.734 378.999C312.723 378.999 314.631 378.209 316.038 376.802C317.444 375.396 318.234 373.488 318.234 371.499C318.234 369.51 317.444 367.602 316.038 366.195C314.631 364.789 312.724 363.999 310.734 363.999Z" fill="#409B8B"/>
</g>
<g filter="url(#filter4_dddd)">
<path d="M20.7344 236.999C18.7453 236.999 16.8376 237.789 15.4311 239.195C14.0246 240.602 13.2344 242.51 13.2344 244.499C13.2344 246.488 14.0245 248.396 15.431 249.802C16.8376 251.209 18.7452 251.999 20.7343 251.999C22.7235 251.999 24.6312 251.209 26.0377 249.802C27.4442 248.396 28.2344 246.488 28.2344 244.499C28.2344 242.51 27.4442 240.602 26.0377 239.195C24.6312 237.789 22.7235 236.999 20.7344 236.999Z" fill="#409B8B"/>
</g>
<path d="M7.80939 291.863C8.82939 291.673 9.33939 291.148 9.33939 290.288C9.33939 289.908 9.28939 289.258 9.18939 288.338C9.08939 287.358 9.03939 286.648 9.03939 286.208C9.03939 285.488 9.23939 284.938 9.63939 284.558C10.0494 284.178 10.5944 283.988 11.2744 283.988H12.1444V285.173H11.5294C11.1394 285.173 10.8494 285.263 10.6594 285.443C10.4694 285.613 10.3744 285.898 10.3744 286.298C10.3744 286.588 10.3944 286.948 10.4344 287.378C10.4744 287.798 10.4994 288.083 10.5094 288.233C10.6094 289.193 10.6594 289.893 10.6594 290.333C10.6594 290.863 10.5244 291.308 10.2544 291.668C9.99439 292.018 9.58939 292.253 9.03939 292.373V292.403C9.58939 292.523 9.99439 292.763 10.2544 293.123C10.5244 293.483 10.6594 293.928 10.6594 294.458C10.6594 294.898 10.6094 295.598 10.5094 296.558C10.4994 296.708 10.4744 296.998 10.4344 297.428C10.3944 297.848 10.3744 298.203 10.3744 298.493C10.3744 298.893 10.4694 299.178 10.6594 299.348C10.8494 299.528 11.1394 299.618 11.5294 299.618H12.1444V300.803H11.2744C10.5944 300.803 10.0494 300.613 9.63939 300.233C9.23939 299.853 9.03939 299.303 9.03939 298.583C9.03939 298.143 9.08939 297.433 9.18939 296.453C9.28939 295.533 9.33939 294.883 9.33939 294.503C9.33939 293.643 8.82939 293.118 7.80939 292.928V291.863Z" fill="#203C44"/>
<path d="M28.1195 313.948H26.5895L28.0295 310.543H29.0045L28.1195 313.948ZM30.5495 313.948H29.0195L30.4595 310.543H31.4345L30.5495 313.948Z" fill="#203C44"/>
<path d="M34.7628 313.933C35.0128 313.513 35.3428 313.188 35.7528 312.958C36.1728 312.718 36.6678 312.598 37.2378 312.598V314.368H36.8028C36.1328 314.368 35.6228 314.538 35.2728 314.878C34.9328 315.218 34.7628 315.808 34.7628 316.648V320.998H33.0528V312.733H34.7628V313.933Z" fill="#203C44"/>
<path d="M46.3846 316.663C46.3846 316.973 46.3646 317.253 46.3246 317.503H40.0096C40.0596 318.163 40.3046 318.693 40.7446 319.093C41.1846 319.493 41.7246 319.693 42.3646 319.693C43.2846 319.693 43.9346 319.308 44.3146 318.538H46.1596C45.9096 319.298 45.4546 319.923 44.7946 320.413C44.1446 320.893 43.3346 321.133 42.3646 321.133C41.5746 321.133 40.8646 320.958 40.2346 320.608C39.6146 320.248 39.1246 319.748 38.7646 319.108C38.4146 318.458 38.2396 317.708 38.2396 316.858C38.2396 316.008 38.4096 315.263 38.7496 314.623C39.0996 313.973 39.5846 313.473 40.2046 313.123C40.8346 312.773 41.5546 312.598 42.3646 312.598C43.1446 312.598 43.8396 312.768 44.4496 313.108C45.0596 313.448 45.5346 313.928 45.8746 314.548C46.2146 315.158 46.3846 315.863 46.3846 316.663ZM44.5996 316.123C44.5896 315.493 44.3646 314.988 43.9246 314.608C43.4846 314.228 42.9396 314.038 42.2896 314.038C41.6996 314.038 41.1946 314.228 40.7746 314.608C40.3546 314.978 40.1046 315.483 40.0246 316.123H44.5996Z" fill="#203C44"/>
<path d="M51.0674 321.133C50.4174 321.133 49.8324 321.018 49.3124 320.788C48.8024 320.548 48.3974 320.228 48.0974 319.828C47.7974 319.418 47.6374 318.963 47.6174 318.463H49.3874C49.4174 318.813 49.5824 319.108 49.8824 319.348C50.1924 319.578 50.5774 319.693 51.0374 319.693C51.5174 319.693 51.8874 319.603 52.1474 319.423C52.4174 319.233 52.5524 318.993 52.5524 318.703C52.5524 318.393 52.4024 318.163 52.1024 318.013C51.8124 317.863 51.3474 317.698 50.7074 317.518C50.0874 317.348 49.5824 317.183 49.1924 317.023C48.8024 316.863 48.4624 316.618 48.1724 316.288C47.8924 315.958 47.7524 315.523 47.7524 314.983C47.7524 314.543 47.8824 314.143 48.1424 313.783C48.4024 313.413 48.7724 313.123 49.2524 312.913C49.7424 312.703 50.3024 312.598 50.9324 312.598C51.8724 312.598 52.6274 312.838 53.1974 313.318C53.7774 313.788 54.0874 314.433 54.1274 315.253H52.4174C52.3874 314.883 52.2374 314.588 51.9674 314.368C51.6974 314.148 51.3324 314.038 50.8724 314.038C50.4224 314.038 50.0774 314.123 49.8374 314.293C49.5974 314.463 49.4774 314.688 49.4774 314.968C49.4774 315.188 49.5574 315.373 49.7174 315.523C49.8774 315.673 50.0724 315.793 50.3024 315.883C50.5324 315.963 50.8724 316.068 51.3224 316.198C51.9224 316.358 52.4124 316.523 52.7924 316.693C53.1824 316.853 53.5174 317.093 53.7974 317.413C54.0774 317.733 54.2224 318.158 54.2324 318.688C54.2324 319.158 54.1024 319.578 53.8424 319.948C53.5824 320.318 53.2124 320.608 52.7324 320.818C52.2624 321.028 51.7074 321.133 51.0674 321.133Z" fill="#203C44"/>
<path d="M57.7901 313.948C58.0801 313.568 58.4751 313.248 58.9751 312.988C59.4751 312.728 60.0401 312.598 60.6701 312.598C61.3901 312.598 62.0451 312.778 62.6351 313.138C63.2351 313.488 63.7051 313.983 64.0451 314.623C64.3851 315.263 64.5551 315.998 64.5551 316.828C64.5551 317.658 64.3851 318.403 64.0451 319.063C63.7051 319.713 63.2351 320.223 62.6351 320.593C62.0451 320.953 61.3901 321.133 60.6701 321.133C60.0401 321.133 59.4801 321.008 58.9901 320.758C58.5001 320.498 58.1001 320.178 57.7901 319.798V324.928H56.0801V312.733H57.7901V313.948ZM62.8151 316.828C62.8151 316.258 62.6951 315.768 62.4551 315.358C62.2251 314.938 61.9151 314.623 61.5251 314.413C61.1451 314.193 60.7351 314.083 60.2951 314.083C59.8651 314.083 59.4551 314.193 59.0651 314.413C58.6851 314.633 58.3751 314.953 58.1351 315.373C57.9051 315.793 57.7901 316.288 57.7901 316.858C57.7901 317.428 57.9051 317.928 58.1351 318.358C58.3751 318.778 58.6851 319.098 59.0651 319.318C59.4551 319.538 59.8651 319.648 60.2951 319.648C60.7351 319.648 61.1451 319.538 61.5251 319.318C61.9151 319.088 62.2251 318.758 62.4551 318.328C62.6951 317.898 62.8151 317.398 62.8151 316.828Z" fill="#203C44"/>
<path d="M69.8311 321.133C69.0511 321.133 68.3461 320.958 67.7161 320.608C67.0861 320.248 66.5911 319.748 66.2311 319.108C65.8711 318.458 65.6911 317.708 65.6911 316.858C65.6911 316.018 65.8761 315.273 66.2461 314.623C66.6161 313.973 67.1211 313.473 67.7611 313.123C68.4011 312.773 69.1161 312.598 69.9061 312.598C70.6961 312.598 71.4111 312.773 72.0511 313.123C72.6911 313.473 73.1961 313.973 73.5661 314.623C73.9361 315.273 74.1211 316.018 74.1211 316.858C74.1211 317.698 73.9311 318.443 73.5511 319.093C73.1711 319.743 72.6511 320.248 71.9911 320.608C71.3411 320.958 70.6211 321.133 69.8311 321.133ZM69.8311 319.648C70.2711 319.648 70.6811 319.543 71.0611 319.333C71.4511 319.123 71.7661 318.808 72.0061 318.388C72.2461 317.968 72.3661 317.458 72.3661 316.858C72.3661 316.258 72.2511 315.753 72.0211 315.343C71.7911 314.923 71.4861 314.608 71.1061 314.398C70.7261 314.188 70.3161 314.083 69.8761 314.083C69.4361 314.083 69.0261 314.188 68.6461 314.398C68.2761 314.608 67.9811 314.923 67.7611 315.343C67.5411 315.753 67.4311 316.258 67.4311 316.858C67.4311 317.748 67.6561 318.438 68.1061 318.928C68.5661 319.408 69.1411 319.648 69.8311 319.648Z" fill="#203C44"/>
<path d="M79.9815 312.598C80.6315 312.598 81.2115 312.733 81.7215 313.003C82.2415 313.273 82.6465 313.673 82.9365 314.203C83.2265 314.733 83.3715 315.373 83.3715 316.123V320.998H81.6765V316.378C81.6765 315.638 81.4915 315.073 81.1215 314.683C80.7515 314.283 80.2465 314.083 79.6065 314.083C78.9665 314.083 78.4565 314.283 78.0765 314.683C77.7065 315.073 77.5215 315.638 77.5215 316.378V320.998H75.8115V312.733H77.5215V313.678C77.8015 313.338 78.1565 313.073 78.5865 312.883C79.0265 312.693 79.4915 312.598 79.9815 312.598Z" fill="#203C44"/>
<path d="M88.5528 321.133C87.9028 321.133 87.3178 321.018 86.7978 320.788C86.2878 320.548 85.8828 320.228 85.5828 319.828C85.2828 319.418 85.1228 318.963 85.1028 318.463H86.8728C86.9028 318.813 87.0678 319.108 87.3678 319.348C87.6778 319.578 88.0628 319.693 88.5228 319.693C89.0028 319.693 89.3728 319.603 89.6328 319.423C89.9028 319.233 90.0378 318.993 90.0378 318.703C90.0378 318.393 89.8878 318.163 89.5878 318.013C89.2978 317.863 88.8328 317.698 88.1928 317.518C87.5728 317.348 87.0678 317.183 86.6778 317.023C86.2878 316.863 85.9478 316.618 85.6578 316.288C85.3778 315.958 85.2378 315.523 85.2378 314.983C85.2378 314.543 85.3678 314.143 85.6278 313.783C85.8878 313.413 86.2578 313.123 86.7378 312.913C87.2278 312.703 87.7878 312.598 88.4178 312.598C89.3578 312.598 90.1128 312.838 90.6828 313.318C91.2628 313.788 91.5728 314.433 91.6128 315.253H89.9028C89.8728 314.883 89.7228 314.588 89.4528 314.368C89.1828 314.148 88.8178 314.038 88.3578 314.038C87.9078 314.038 87.5628 314.123 87.3228 314.293C87.0828 314.463 86.9628 314.688 86.9628 314.968C86.9628 315.188 87.0428 315.373 87.2028 315.523C87.3628 315.673 87.5578 315.793 87.7878 315.883C88.0178 315.963 88.3578 316.068 88.8078 316.198C89.4078 316.358 89.8978 316.523 90.2778 316.693C90.6678 316.853 91.0028 317.093 91.2828 317.413C91.5628 317.733 91.7078 318.158 91.7178 318.688C91.7178 319.158 91.5878 319.578 91.3278 319.948C91.0678 320.318 90.6978 320.608 90.2178 320.818C89.7478 321.028 89.1928 321.133 88.5528 321.133Z" fill="#203C44"/>
<path d="M101.14 316.663C101.14 316.973 101.12 317.253 101.08 317.503H94.7654C94.8154 318.163 95.0605 318.693 95.5005 319.093C95.9405 319.493 96.4805 319.693 97.1205 319.693C98.0405 319.693 98.6904 319.308 99.0704 318.538H100.915C100.665 319.298 100.21 319.923 99.5505 320.413C98.9005 320.893 98.0905 321.133 97.1205 321.133C96.3305 321.133 95.6204 320.958 94.9904 320.608C94.3704 320.248 93.8804 319.748 93.5204 319.108C93.1704 318.458 92.9955 317.708 92.9955 316.858C92.9955 316.008 93.1654 315.263 93.5054 314.623C93.8554 313.973 94.3404 313.473 94.9604 313.123C95.5904 312.773 96.3105 312.598 97.1205 312.598C97.9005 312.598 98.5955 312.768 99.2055 313.108C99.8155 313.448 100.29 313.928 100.63 314.548C100.97 315.158 101.14 315.863 101.14 316.663ZM99.3554 316.123C99.3454 315.493 99.1205 314.988 98.6805 314.608C98.2405 314.228 97.6954 314.038 97.0454 314.038C96.4554 314.038 95.9504 314.228 95.5304 314.608C95.1104 314.978 94.8604 315.483 94.7804 316.123H99.3554Z" fill="#203C44"/>
<path d="M103.063 310.543H104.578L103.138 313.948H102.178L103.063 310.543ZM105.493 310.543H107.008L105.568 313.948H104.593L105.493 310.543Z" fill="#203C44"/>
<path d="M108.987 321.088C108.727 321.088 108.507 320.998 108.327 320.818C108.147 320.638 108.057 320.418 108.057 320.158C108.057 319.898 108.147 319.678 108.327 319.498C108.507 319.318 108.727 319.228 108.987 319.228C109.237 319.228 109.447 319.318 109.617 319.498C109.797 319.678 109.887 319.898 109.887 320.158C109.887 320.418 109.797 320.638 109.617 320.818C109.447 320.998 109.237 321.088 108.987 321.088ZM108.987 314.668C108.727 314.668 108.507 314.578 108.327 314.398C108.147 314.218 108.057 313.998 108.057 313.738C108.057 313.478 108.147 313.258 108.327 313.078C108.507 312.898 108.727 312.808 108.987 312.808C109.237 312.808 109.447 312.898 109.617 313.078C109.797 313.258 109.887 313.478 109.887 313.738C109.887 313.998 109.797 314.218 109.617 314.398C109.447 314.578 109.237 314.668 108.987 314.668Z" fill="#203C44"/>
<path d="M116.479 313.948H114.949L116.389 310.543H117.364L116.479 313.948ZM118.909 313.948H117.379L118.819 310.543H119.794L118.909 313.948Z" fill="#203C44"/>
<path d="M124.352 321.133C123.722 321.133 123.157 321.028 122.657 320.818C122.157 320.598 121.762 320.298 121.472 319.918C121.182 319.528 121.022 319.083 120.992 318.583H122.402C122.442 318.993 122.632 319.328 122.972 319.588C123.322 319.848 123.777 319.978 124.337 319.978C124.857 319.978 125.267 319.863 125.567 319.633C125.867 319.403 126.017 319.113 126.017 318.763C126.017 318.403 125.857 318.138 125.537 317.968C125.217 317.788 124.722 317.613 124.052 317.443C123.442 317.283 122.942 317.123 122.552 316.963C122.172 316.793 121.842 316.548 121.562 316.228C121.292 315.898 121.157 315.468 121.157 314.938C121.157 314.518 121.282 314.133 121.532 313.783C121.782 313.433 122.137 313.158 122.597 312.958C123.057 312.748 123.582 312.643 124.172 312.643C125.082 312.643 125.817 312.873 126.377 313.333C126.937 313.793 127.237 314.423 127.277 315.223H125.912C125.882 314.793 125.707 314.448 125.387 314.188C125.077 313.928 124.657 313.798 124.127 313.798C123.637 313.798 123.247 313.903 122.957 314.113C122.667 314.323 122.522 314.598 122.522 314.938C122.522 315.208 122.607 315.433 122.777 315.613C122.957 315.783 123.177 315.923 123.437 316.033C123.707 316.133 124.077 316.248 124.547 316.378C125.137 316.538 125.617 316.698 125.987 316.858C126.357 317.008 126.672 317.238 126.932 317.548C127.202 317.858 127.342 318.263 127.352 318.763C127.352 319.213 127.227 319.618 126.977 319.978C126.727 320.338 126.372 320.623 125.912 320.833C125.462 321.033 124.942 321.133 124.352 321.133Z" fill="#203C44"/>
<path d="M132.864 321.133C132.094 321.133 131.394 320.958 130.764 320.608C130.144 320.258 129.654 319.763 129.294 319.123C128.944 318.473 128.769 317.723 128.769 316.873C128.769 316.033 128.949 315.293 129.309 314.653C129.679 314.003 130.179 313.508 130.809 313.168C131.439 312.818 132.144 312.643 132.924 312.643C133.704 312.643 134.409 312.818 135.039 313.168C135.669 313.508 136.164 313.998 136.524 314.638C136.894 315.278 137.079 316.023 137.079 316.873C137.079 317.723 136.889 318.473 136.509 319.123C136.139 319.763 135.634 320.258 134.994 320.608C134.354 320.958 133.644 321.133 132.864 321.133ZM132.864 319.933C133.354 319.933 133.814 319.818 134.244 319.588C134.674 319.358 135.019 319.013 135.279 318.553C135.549 318.093 135.684 317.533 135.684 316.873C135.684 316.213 135.554 315.653 135.294 315.193C135.034 314.733 134.694 314.393 134.274 314.173C133.854 313.943 133.399 313.828 132.909 313.828C132.409 313.828 131.949 313.943 131.529 314.173C131.119 314.393 130.789 314.733 130.539 315.193C130.289 315.653 130.164 316.213 130.164 316.873C130.164 317.543 130.284 318.108 130.524 318.568C130.774 319.028 131.104 319.373 131.514 319.603C131.924 319.823 132.374 319.933 132.864 319.933Z" fill="#203C44"/>
<path d="M148.759 312.628C149.399 312.628 149.969 312.763 150.469 313.033C150.969 313.293 151.364 313.688 151.654 314.218C151.944 314.748 152.089 315.393 152.089 316.153V320.998H150.739V316.348C150.739 315.528 150.534 314.903 150.124 314.473C149.724 314.033 149.179 313.813 148.489 313.813C147.779 313.813 147.214 314.043 146.794 314.503C146.374 314.953 146.164 315.608 146.164 316.468V320.998H144.814V316.348C144.814 315.528 144.609 314.903 144.199 314.473C143.799 314.033 143.254 313.813 142.564 313.813C141.854 313.813 141.289 314.043 140.869 314.503C140.449 314.953 140.239 315.608 140.239 316.468V320.998H138.874V312.778H140.239V313.963C140.509 313.533 140.869 313.203 141.319 312.973C141.779 312.743 142.284 312.628 142.834 312.628C143.524 312.628 144.134 312.783 144.664 313.093C145.194 313.403 145.589 313.858 145.849 314.458C146.079 313.878 146.459 313.428 146.989 313.108C147.519 312.788 148.109 312.628 148.759 312.628Z" fill="#203C44"/>
<path d="M161.828 316.573C161.828 316.833 161.813 317.108 161.783 317.398H155.213C155.263 318.208 155.538 318.843 156.038 319.303C156.548 319.753 157.163 319.978 157.883 319.978C158.473 319.978 158.963 319.843 159.353 319.573C159.753 319.293 160.033 318.923 160.193 318.463H161.663C161.443 319.253 161.003 319.898 160.343 320.398C159.683 320.888 158.863 321.133 157.883 321.133C157.103 321.133 156.403 320.958 155.783 320.608C155.173 320.258 154.693 319.763 154.343 319.123C153.993 318.473 153.818 317.723 153.818 316.873C153.818 316.023 153.988 315.278 154.328 314.638C154.668 313.998 155.143 313.508 155.753 313.168C156.373 312.818 157.083 312.643 157.883 312.643C158.663 312.643 159.353 312.813 159.953 313.153C160.553 313.493 161.013 313.963 161.333 314.563C161.663 315.153 161.828 315.823 161.828 316.573ZM160.418 316.288C160.418 315.768 160.303 315.323 160.073 314.953C159.843 314.573 159.528 314.288 159.128 314.098C158.738 313.898 158.303 313.798 157.823 313.798C157.133 313.798 156.543 314.018 156.053 314.458C155.573 314.898 155.298 315.508 155.228 316.288H160.418Z" fill="#203C44"/>
<path d="M165.295 313.903V318.748C165.295 319.148 165.38 319.433 165.55 319.603C165.72 319.763 166.015 319.843 166.435 319.843H167.44V320.998H166.21C165.45 320.998 164.88 320.823 164.5 320.473C164.12 320.123 163.93 319.548 163.93 318.748V313.903H162.865V312.778H163.93V310.708H165.295V312.778H167.44V313.903H165.295Z" fill="#203C44"/>
<path d="M169.798 311.443C169.538 311.443 169.318 311.353 169.138 311.173C168.958 310.993 168.868 310.773 168.868 310.513C168.868 310.253 168.958 310.033 169.138 309.853C169.318 309.673 169.538 309.583 169.798 309.583C170.048 309.583 170.258 309.673 170.428 309.853C170.608 310.033 170.699 310.253 170.699 310.513C170.699 310.773 170.608 310.993 170.428 311.173C170.258 311.353 170.048 311.443 169.798 311.443ZM170.458 312.778V320.998H169.093V312.778H170.458Z" fill="#203C44"/>
<path d="M182.67 312.628C183.31 312.628 183.88 312.763 184.38 313.033C184.88 313.293 185.275 313.688 185.565 314.218C185.855 314.748 186 315.393 186 316.153V320.998H184.65V316.348C184.65 315.528 184.445 314.903 184.035 314.473C183.635 314.033 183.09 313.813 182.4 313.813C181.69 313.813 181.125 314.043 180.705 314.503C180.285 314.953 180.075 315.608 180.075 316.468V320.998H178.725V316.348C178.725 315.528 178.52 314.903 178.11 314.473C177.71 314.033 177.165 313.813 176.475 313.813C175.765 313.813 175.2 314.043 174.78 314.503C174.36 314.953 174.15 315.608 174.15 316.468V320.998H172.785V312.778H174.15V313.963C174.42 313.533 174.78 313.203 175.23 312.973C175.69 312.743 176.195 312.628 176.745 312.628C177.435 312.628 178.045 312.783 178.575 313.093C179.105 313.403 179.5 313.858 179.76 314.458C179.99 313.878 180.37 313.428 180.9 313.108C181.43 312.788 182.02 312.628 182.67 312.628Z" fill="#203C44"/>
<path d="M195.739 316.573C195.739 316.833 195.724 317.108 195.694 317.398H189.124C189.174 318.208 189.449 318.843 189.949 319.303C190.459 319.753 191.074 319.978 191.794 319.978C192.384 319.978 192.874 319.843 193.264 319.573C193.664 319.293 193.944 318.923 194.104 318.463H195.574C195.354 319.253 194.914 319.898 194.254 320.398C193.594 320.888 192.774 321.133 191.794 321.133C191.014 321.133 190.314 320.958 189.694 320.608C189.084 320.258 188.604 319.763 188.254 319.123C187.904 318.473 187.729 317.723 187.729 316.873C187.729 316.023 187.899 315.278 188.239 314.638C188.579 313.998 189.054 313.508 189.664 313.168C190.284 312.818 190.994 312.643 191.794 312.643C192.574 312.643 193.264 312.813 193.864 313.153C194.464 313.493 194.924 313.963 195.244 314.563C195.574 315.153 195.739 315.823 195.739 316.573ZM194.329 316.288C194.329 315.768 194.214 315.323 193.984 314.953C193.754 314.573 193.439 314.288 193.039 314.098C192.649 313.898 192.214 313.798 191.734 313.798C191.044 313.798 190.454 314.018 189.964 314.458C189.484 314.898 189.209 315.508 189.139 316.288H194.329Z" fill="#203C44"/>
<path d="M200.451 321.133C199.821 321.133 199.256 321.028 198.756 320.818C198.256 320.598 197.861 320.298 197.571 319.918C197.281 319.528 197.121 319.083 197.091 318.583H198.501C198.541 318.993 198.731 319.328 199.071 319.588C199.421 319.848 199.876 319.978 200.436 319.978C200.956 319.978 201.366 319.863 201.666 319.633C201.966 319.403 202.116 319.113 202.116 318.763C202.116 318.403 201.956 318.138 201.636 317.968C201.316 317.788 200.821 317.613 200.151 317.443C199.541 317.283 199.041 317.123 198.651 316.963C198.271 316.793 197.941 316.548 197.661 316.228C197.391 315.898 197.256 315.468 197.256 314.938C197.256 314.518 197.381 314.133 197.631 313.783C197.881 313.433 198.236 313.158 198.696 312.958C199.156 312.748 199.681 312.643 200.271 312.643C201.181 312.643 201.916 312.873 202.476 313.333C203.036 313.793 203.336 314.423 203.376 315.223H202.011C201.981 314.793 201.806 314.448 201.486 314.188C201.176 313.928 200.756 313.798 200.226 313.798C199.736 313.798 199.346 313.903 199.056 314.113C198.766 314.323 198.621 314.598 198.621 314.938C198.621 315.208 198.706 315.433 198.876 315.613C199.056 315.783 199.276 315.923 199.536 316.033C199.806 316.133 200.176 316.248 200.646 316.378C201.236 316.538 201.716 316.698 202.086 316.858C202.456 317.008 202.771 317.238 203.031 317.548C203.301 317.858 203.441 318.263 203.451 318.763C203.451 319.213 203.326 319.618 203.076 319.978C202.826 320.338 202.471 320.623 202.011 320.833C201.561 321.033 201.041 321.133 200.451 321.133Z" fill="#203C44"/>
<path d="M211.042 313.903V318.748C211.042 319.148 211.127 319.433 211.297 319.603C211.467 319.763 211.762 319.843 212.182 319.843H213.187V320.998H211.957C211.197 320.998 210.627 320.823 210.247 320.473C209.867 320.123 209.677 319.548 209.677 318.748V313.903H208.612V312.778H209.677V310.708H211.042V312.778H213.187V313.903H211.042Z" fill="#203C44"/>
<path d="M218.921 312.628C219.541 312.628 220.101 312.763 220.601 313.033C221.101 313.293 221.491 313.688 221.771 314.218C222.061 314.748 222.206 315.393 222.206 316.153V320.998H220.856V316.348C220.856 315.528 220.651 314.903 220.241 314.473C219.831 314.033 219.271 313.813 218.561 313.813C217.841 313.813 217.266 314.038 216.836 314.488C216.416 314.938 216.206 315.593 216.206 316.453V320.998H214.841V309.898H216.206V313.948C216.476 313.528 216.846 313.203 217.316 312.973C217.796 312.743 218.331 312.628 218.921 312.628Z" fill="#203C44"/>
<path d="M223.925 316.858C223.925 316.018 224.095 315.283 224.435 314.653C224.775 314.013 225.24 313.518 225.83 313.168C226.43 312.818 227.095 312.643 227.825 312.643C228.545 312.643 229.17 312.798 229.7 313.108C230.23 313.418 230.625 313.808 230.885 314.278V312.778H232.265V320.998H230.885V319.468C230.615 319.948 230.21 320.348 229.67 320.668C229.14 320.978 228.52 321.133 227.81 321.133C227.08 321.133 226.42 320.953 225.83 320.593C225.24 320.233 224.775 319.728 224.435 319.078C224.095 318.428 223.925 317.688 223.925 316.858ZM230.885 316.873C230.885 316.253 230.76 315.713 230.51 315.253C230.26 314.793 229.92 314.443 229.49 314.203C229.07 313.953 228.605 313.828 228.095 313.828C227.585 313.828 227.12 313.948 226.7 314.188C226.28 314.428 225.945 314.778 225.695 315.238C225.445 315.698 225.32 316.238 225.32 316.858C225.32 317.488 225.445 318.038 225.695 318.508C225.945 318.968 226.28 319.323 226.7 319.573C227.12 319.813 227.585 319.933 228.095 319.933C228.605 319.933 229.07 319.813 229.49 319.573C229.92 319.323 230.26 318.968 230.51 318.508C230.76 318.038 230.885 317.493 230.885 316.873Z" fill="#203C44"/>
<path d="M236.237 313.903V318.748C236.237 319.148 236.322 319.433 236.492 319.603C236.662 319.763 236.957 319.843 237.377 319.843H238.382V320.998H237.152C236.392 320.998 235.822 320.823 235.442 320.473C235.062 320.123 234.872 319.548 234.872 318.748V313.903H233.807V312.778H234.872V310.708H236.237V312.778H238.382V313.903H236.237Z" fill="#203C44"/>
<path d="M244.74 311.443C244.48 311.443 244.26 311.353 244.08 311.173C243.9 310.993 243.81 310.773 243.81 310.513C243.81 310.253 243.9 310.033 244.08 309.853C244.26 309.673 244.48 309.583 244.74 309.583C244.99 309.583 245.2 309.673 245.37 309.853C245.55 310.033 245.64 310.253 245.64 310.513C245.64 310.773 245.55 310.993 245.37 311.173C245.2 311.353 244.99 311.443 244.74 311.443ZM245.4 312.778V320.998H244.035V312.778H245.4Z" fill="#203C44"/>
<path d="M250.636 321.133C250.006 321.133 249.441 321.028 248.941 320.818C248.441 320.598 248.046 320.298 247.756 319.918C247.466 319.528 247.306 319.083 247.276 318.583H248.686C248.726 318.993 248.916 319.328 249.256 319.588C249.606 319.848 250.061 319.978 250.621 319.978C251.141 319.978 251.551 319.863 251.851 319.633C252.151 319.403 252.301 319.113 252.301 318.763C252.301 318.403 252.141 318.138 251.821 317.968C251.501 317.788 251.006 317.613 250.336 317.443C249.726 317.283 249.226 317.123 248.836 316.963C248.456 316.793 248.126 316.548 247.846 316.228C247.576 315.898 247.441 315.468 247.441 314.938C247.441 314.518 247.566 314.133 247.816 313.783C248.066 313.433 248.421 313.158 248.881 312.958C249.341 312.748 249.866 312.643 250.456 312.643C251.366 312.643 252.101 312.873 252.661 313.333C253.221 313.793 253.521 314.423 253.561 315.223H252.196C252.166 314.793 251.991 314.448 251.671 314.188C251.361 313.928 250.941 313.798 250.411 313.798C249.921 313.798 249.531 313.903 249.241 314.113C248.951 314.323 248.806 314.598 248.806 314.938C248.806 315.208 248.891 315.433 249.061 315.613C249.241 315.783 249.461 315.923 249.721 316.033C249.991 316.133 250.361 316.248 250.831 316.378C251.421 316.538 251.901 316.698 252.271 316.858C252.641 317.008 252.956 317.238 253.216 317.548C253.486 317.858 253.626 318.263 253.636 318.763C253.636 319.213 253.511 319.618 253.261 319.978C253.011 320.338 252.656 320.623 252.196 320.833C251.746 321.033 251.226 321.133 250.636 321.133Z" fill="#203C44"/>
<path d="M259.052 316.858C259.052 316.018 259.222 315.283 259.562 314.653C259.902 314.013 260.367 313.518 260.957 313.168C261.557 312.818 262.222 312.643 262.952 312.643C263.672 312.643 264.297 312.798 264.827 313.108C265.357 313.418 265.752 313.808 266.012 314.278V312.778H267.392V320.998H266.012V319.468C265.742 319.948 265.337 320.348 264.797 320.668C264.267 320.978 263.647 321.133 262.937 321.133C262.207 321.133 261.547 320.953 260.957 320.593C260.367 320.233 259.902 319.728 259.562 319.078C259.222 318.428 259.052 317.688 259.052 316.858ZM266.012 316.873C266.012 316.253 265.887 315.713 265.637 315.253C265.387 314.793 265.047 314.443 264.617 314.203C264.197 313.953 263.732 313.828 263.222 313.828C262.712 313.828 262.247 313.948 261.827 314.188C261.407 314.428 261.072 314.778 260.822 315.238C260.572 315.698 260.447 316.238 260.447 316.858C260.447 317.488 260.572 318.038 260.822 318.508C261.072 318.968 261.407 319.323 261.827 319.573C262.247 319.813 262.712 319.933 263.222 319.933C263.732 319.933 264.197 319.813 264.617 319.573C265.047 319.323 265.387 318.968 265.637 318.508C265.887 318.038 266.012 317.493 266.012 316.873Z" fill="#203C44"/>
<path d="M271.064 309.898V320.998H269.699V309.898H271.064Z" fill="#203C44"/>
<path d="M274.755 309.898V320.998H273.39V309.898H274.755Z" fill="#203C44"/>
<path d="M281.786 311.443C281.526 311.443 281.306 311.353 281.126 311.173C280.946 310.993 280.856 310.773 280.856 310.513C280.856 310.253 280.946 310.033 281.126 309.853C281.306 309.673 281.526 309.583 281.786 309.583C282.036 309.583 282.246 309.673 282.416 309.853C282.596 310.033 282.686 310.253 282.686 310.513C282.686 310.773 282.596 310.993 282.416 311.173C282.246 311.353 282.036 311.443 281.786 311.443ZM282.446 312.778V320.998H281.081V312.778H282.446Z" fill="#203C44"/>
<path d="M286.437 313.903V318.748C286.437 319.148 286.522 319.433 286.692 319.603C286.862 319.763 287.157 319.843 287.577 319.843H288.582V320.998H287.352C286.592 320.998 286.022 320.823 285.642 320.473C285.262 320.123 285.072 319.548 285.072 318.748V313.903H284.007V312.778H285.072V310.708H286.437V312.778H288.582V313.903H286.437Z" fill="#203C44"/>
<path d="M295.9 313.903V318.748C295.9 319.148 295.985 319.433 296.155 319.603C296.325 319.763 296.62 319.843 297.04 319.843H298.045V320.998H296.815C296.055 320.998 295.485 320.823 295.105 320.473C294.725 320.123 294.535 319.548 294.535 318.748V313.903H293.47V312.778H294.535V310.708H295.9V312.778H298.045V313.903H295.9Z" fill="#203C44"/>
<path d="M299.189 316.858C299.189 316.018 299.359 315.283 299.699 314.653C300.039 314.013 300.504 313.518 301.094 313.168C301.694 312.818 302.359 312.643 303.089 312.643C303.809 312.643 304.434 312.798 304.964 313.108C305.494 313.418 305.889 313.808 306.149 314.278V312.778H307.529V320.998H306.149V319.468C305.879 319.948 305.474 320.348 304.934 320.668C304.404 320.978 303.784 321.133 303.074 321.133C302.344 321.133 301.684 320.953 301.094 320.593C300.504 320.233 300.039 319.728 299.699 319.078C299.359 318.428 299.189 317.688 299.189 316.858ZM306.149 316.873C306.149 316.253 306.024 315.713 305.774 315.253C305.524 314.793 305.184 314.443 304.754 314.203C304.334 313.953 303.869 313.828 303.359 313.828C302.849 313.828 302.384 313.948 301.964 314.188C301.544 314.428 301.209 314.778 300.959 315.238C300.709 315.698 300.584 316.238 300.584 316.858C300.584 317.488 300.709 318.038 300.959 318.508C301.209 318.968 301.544 319.323 301.964 319.573C302.384 319.813 302.849 319.933 303.359 319.933C303.869 319.933 304.334 319.813 304.754 319.573C305.184 319.323 305.524 318.968 305.774 318.508C306.024 318.038 306.149 317.493 306.149 316.873Z" fill="#203C44"/>
<path d="M314.426 320.998L311.201 317.368V320.998H309.836V309.898H311.201V316.423L314.366 312.778H316.271L312.401 316.873L316.286 320.998H314.426Z" fill="#203C44"/>
<path d="M325.055 316.573C325.055 316.833 325.04 317.108 325.01 317.398H318.44C318.49 318.208 318.765 318.843 319.265 319.303C319.775 319.753 320.39 319.978 321.11 319.978C321.7 319.978 322.19 319.843 322.58 319.573C322.98 319.293 323.26 318.923 323.42 318.463H324.89C324.67 319.253 324.23 319.898 323.57 320.398C322.91 320.888 322.09 321.133 321.11 321.133C320.33 321.133 319.63 320.958 319.01 320.608C318.4 320.258 317.92 319.763 317.57 319.123C317.22 318.473 317.045 317.723 317.045 316.873C317.045 316.023 317.215 315.278 317.555 314.638C317.895 313.998 318.37 313.508 318.98 313.168C319.6 312.818 320.31 312.643 321.11 312.643C321.89 312.643 322.58 312.813 323.18 313.153C323.78 313.493 324.24 313.963 324.56 314.563C324.89 315.153 325.055 315.823 325.055 316.573ZM323.645 316.288C323.645 315.768 323.53 315.323 323.3 314.953C323.07 314.573 322.755 314.288 322.355 314.098C321.965 313.898 321.53 313.798 321.05 313.798C320.36 313.798 319.77 314.018 319.28 314.458C318.8 314.898 318.525 315.508 318.455 316.288H323.645Z" fill="#203C44"/>
<path d="M329.767 321.133C329.137 321.133 328.572 321.028 328.072 320.818C327.572 320.598 327.177 320.298 326.887 319.918C326.597 319.528 326.437 319.083 326.407 318.583H327.817C327.857 318.993 328.047 319.328 328.387 319.588C328.737 319.848 329.192 319.978 329.752 319.978C330.272 319.978 330.682 319.863 330.982 319.633C331.282 319.403 331.432 319.113 331.432 318.763C331.432 318.403 331.272 318.138 330.952 317.968C330.632 317.788 330.137 317.613 329.467 317.443C328.857 317.283 328.357 317.123 327.967 316.963C327.587 316.793 327.257 316.548 326.977 316.228C326.707 315.898 326.572 315.468 326.572 314.938C326.572 314.518 326.697 314.133 326.947 313.783C327.197 313.433 327.552 313.158 328.012 312.958C328.472 312.748 328.997 312.643 329.587 312.643C330.497 312.643 331.232 312.873 331.792 313.333C332.352 313.793 332.652 314.423 332.692 315.223H331.327C331.297 314.793 331.122 314.448 330.802 314.188C330.492 313.928 330.072 313.798 329.542 313.798C329.052 313.798 328.662 313.903 328.372 314.113C328.082 314.323 327.937 314.598 327.937 314.938C327.937 315.208 328.022 315.433 328.192 315.613C328.372 315.783 328.592 315.923 328.852 316.033C329.122 316.133 329.492 316.248 329.962 316.378C330.552 316.538 331.032 316.698 331.402 316.858C331.772 317.008 332.087 317.238 332.347 317.548C332.617 317.858 332.757 318.263 332.767 318.763C332.767 319.213 332.642 319.618 332.392 319.978C332.142 320.338 331.787 320.623 331.327 320.833C330.877 321.033 330.357 321.133 329.767 321.133Z" fill="#203C44"/>
<path d="M334.904 310.543H336.419L334.979 313.948H334.019L334.904 310.543ZM337.334 310.543H338.849L337.409 313.948H336.434L337.334 310.543Z" fill="#203C44"/>
<path d="M11.5894 338.928C10.5694 339.118 10.0594 339.643 10.0594 340.503C10.0594 340.883 10.1094 341.533 10.2094 342.453C10.3094 343.433 10.3594 344.143 10.3594 344.583C10.3594 345.303 10.1544 345.853 9.74439 346.233C9.34439 346.613 8.80439 346.803 8.12439 346.803H7.25439V345.618H7.86939C8.25939 345.618 8.54939 345.528 8.73939 345.348C8.92939 345.178 9.02439 344.893 9.02439 344.493C9.02439 344.203 9.00439 343.848 8.96439 343.428C8.92439 342.998 8.89939 342.708 8.88939 342.558C8.78939 341.598 8.73939 340.898 8.73939 340.458C8.73939 339.928 8.86939 339.483 9.12939 339.123C9.39939 338.763 9.80939 338.523 10.3594 338.403V338.373C9.80939 338.253 9.39939 338.018 9.12939 337.668C8.86939 337.308 8.73939 336.863 8.73939 336.333C8.73939 335.893 8.78939 335.193 8.88939 334.233C8.89939 334.083 8.92439 333.798 8.96439 333.378C9.00439 332.948 9.02439 332.588 9.02439 332.298C9.02439 331.898 8.92939 331.613 8.73939 331.443C8.54939 331.263 8.25939 331.173 7.86939 331.173H7.25439V329.988H8.12439C8.80439 329.988 9.34439 330.178 9.74439 330.558C10.1544 330.938 10.3594 331.488 10.3594 332.208C10.3594 332.648 10.3094 333.358 10.2094 334.338C10.1094 335.258 10.0594 335.908 10.0594 336.288C10.0594 337.148 10.5694 337.673 11.5894 337.863V338.928Z" fill="#203C44"/>
<defs>
<filter id="filter0_dddd" x="298.234" y="118" width="43" height="43" filterUnits="userSpaceOnUse" color-interpolation-filters="sRGB">
<feFlood flood-opacity="0" result="BackgroundImageFix"/>
<feColorMatrix in="SourceAlpha" type="matrix" values="0 0 0 0 0 0 0 0 0 0 0 0 0 0 0 0 0 0 127 0"/>
<feOffset dx="5" dy="5"/>
<feGaussianBlur stdDeviation="5"/>
<feColorMatrix type="matrix" values="0 0 0 0 0.685417 0 0 0 0 0.762719 0 0 0 0 0.783333 0 0 0 1 0"/>
<feBlend mode="normal" in2="BackgroundImageFix" result="effect1_dropShadow"/>
<feColorMatrix in="SourceAlpha" type="matrix" values="0 0 0 0 0 0 0 0 0 0 0 0 0 0 0 0 0 0 127 0"/>
<feOffset dx="2" dy="2"/>
<feGaussianBlur stdDeviation="2.5"/>
<feColorMatrix type="matrix" values="0 0 0 0 0.592969 0 0 0 0 0.667599 0 0 0 0 0.6875 0 0 0 1 0"/>
<feBlend mode="normal" in2="effect1_dropShadow" result="effect2_dropShadow"/>
<feColorMatrix in="SourceAlpha" type="matrix" values="0 0 0 0 0 0 0 0 0 0 0 0 0 0 0 0 0 0 127 0"/>
<feOffset dx="-3" dy="-3"/>
<feGaussianBlur stdDeviation="5"/>
<feColorMatrix type="matrix" values="0 0 0 0 0.867188 0 0 0 0 0.912829 0 0 0 0 0.925 0 0 0 1 0"/>
<feBlend mode="normal" in2="effect2_dropShadow" result="effect3_dropShadow"/>
<feColorMatrix in="SourceAlpha" type="matrix" values="0 0 0 0 0 0 0 0 0 0 0 0 0 0 0 0 0 0 127 0"/>
<feOffset dx="-1" dy="-1"/>
<feGaussianBlur stdDeviation="0.5"/>
<feColorMatrix type="matrix" values="0 0 0 0 0.914201 0 0 0 0 0.935884 0 0 0 0 0.941667 0 0 0 1 0"/>
<feBlend mode="normal" in2="effect3_dropShadow" result="effect4_dropShadow"/>
<feBlend mode="normal" in="SourceGraphic" in2="effect4_dropShadow" result="shape"/>
</filter>
<filter id="filter1_dddd" x="298.234" y="0" width="43" height="43" filterUnits="userSpaceOnUse" color-interpolation-filters="sRGB">
<feFlood flood-opacity="0" result="BackgroundImageFix"/>
<feColorMatrix in="SourceAlpha" type="matrix" values="0 0 0 0 0 0 0 0 0 0 0 0 0 0 0 0 0 0 127 0"/>
<feOffset dx="5" dy="5"/>
<feGaussianBlur stdDeviation="5"/>
<feColorMatrix type="matrix" values="0 0 0 0 0.685417 0 0 0 0 0.762719 0 0 0 0 0.783333 0 0 0 1 0"/>
<feBlend mode="normal" in2="BackgroundImageFix" result="effect1_dropShadow"/>
<feColorMatrix in="SourceAlpha" type="matrix" values="0 0 0 0 0 0 0 0 0 0 0 0 0 0 0 0 0 0 127 0"/>
<feOffset dx="2" dy="2"/>
<feGaussianBlur stdDeviation="2.5"/>
<feColorMatrix type="matrix" values="0 0 0 0 0.592969 0 0 0 0 0.667599 0 0 0 0 0.6875 0 0 0 1 0"/>
<feBlend mode="normal" in2="effect1_dropShadow" result="effect2_dropShadow"/>
<feColorMatrix in="SourceAlpha" type="matrix" values="0 0 0 0 0 0 0 0 0 0 0 0 0 0 0 0 0 0 127 0"/>
<feOffset dx="-3" dy="-3"/>
<feGaussianBlur stdDeviation="5"/>
<feColorMatrix type="matrix" values="0 0 0 0 0.867188 0 0 0 0 0.912829 0 0 0 0 0.925 0 0 0 1 0"/>
<feBlend mode="normal" in2="effect2_dropShadow" result="effect3_dropShadow"/>
<feColorMatrix in="SourceAlpha" type="matrix" values="0 0 0 0 0 0 0 0 0 0 0 0 0 0 0 0 0 0 127 0"/>
<feOffset dx="-1" dy="-1"/>
<feGaussianBlur stdDeviation="0.5"/>
<feColorMatrix type="matrix" values="0 0 0 0 0.914201 0 0 0 0 0.935884 0 0 0 0 0.941667 0 0 0 1 0"/>
<feBlend mode="normal" in2="effect3_dropShadow" result="effect4_dropShadow"/>
<feBlend mode="normal" in="SourceGraphic" in2="effect4_dropShadow" result="shape"/>
</filter>
<filter id="filter2_dddd" x="298.234" y="58" width="43" height="43" filterUnits="userSpaceOnUse" color-interpolation-filters="sRGB">
<feFlood flood-opacity="0" result="BackgroundImageFix"/>
<feColorMatrix in="SourceAlpha" type="matrix" values="0 0 0 0 0 0 0 0 0 0 0 0 0 0 0 0 0 0 127 0"/>
<feOffset dx="5" dy="5"/>
<feGaussianBlur stdDeviation="5"/>
<feColorMatrix type="matrix" values="0 0 0 0 0.685417 0 0 0 0 0.762719 0 0 0 0 0.783333 0 0 0 1 0"/>
<feBlend mode="normal" in2="BackgroundImageFix" result="effect1_dropShadow"/>
<feColorMatrix in="SourceAlpha" type="matrix" values="0 0 0 0 0 0 0 0 0 0 0 0 0 0 0 0 0 0 127 0"/>
<feOffset dx="2" dy="2"/>
<feGaussianBlur stdDeviation="2.5"/>
<feColorMatrix type="matrix" values="0 0 0 0 0.592969 0 0 0 0 0.667599 0 0 0 0 0.6875 0 0 0 1 0"/>
<feBlend mode="normal" in2="effect1_dropShadow" result="effect2_dropShadow"/>
<feColorMatrix in="SourceAlpha" type="matrix" values="0 0 0 0 0 0 0 0 0 0 0 0 0 0 0 0 0 0 127 0"/>
<feOffset dx="-3" dy="-3"/>
<feGaussianBlur stdDeviation="5"/>
<feColorMatrix type="matrix" values="0 0 0 0 0.867188 0 0 0 0 0.912829 0 0 0 0 0.925 0 0 0 1 0"/>
<feBlend mode="normal" in2="effect2_dropShadow" result="effect3_dropShadow"/>
<feColorMatrix in="SourceAlpha" type="matrix" values="0 0 0 0 0 0 0 0 0 0 0 0 0 0 0 0 0 0 127 0"/>
<feOffset dx="-1" dy="-1"/>
<feGaussianBlur stdDeviation="0.5"/>
<feColorMatrix type="matrix" values="0 0 0 0 0.914201 0 0 0 0 0.935884 0 0 0 0 0.941667 0 0 0 1 0"/>
<feBlend mode="normal" in2="effect3_dropShadow" result="effect4_dropShadow"/>
<feBlend mode="normal" in="SourceGraphic" in2="effect4_dropShadow" result="shape"/>
</filter>
<filter id="filter3_dddd" x="290.234" y="350.999" width="43" height="43" filterUnits="userSpaceOnUse" color-interpolation-filters="sRGB">
<feFlood flood-opacity="0" result="BackgroundImageFix"/>
<feColorMatrix in="SourceAlpha" type="matrix" values="0 0 0 0 0 0 0 0 0 0 0 0 0 0 0 0 0 0 127 0"/>
<feOffset dx="5" dy="5"/>
<feGaussianBlur stdDeviation="5"/>
<feColorMatrix type="matrix" values="0 0 0 0 0.685417 0 0 0 0 0.762719 0 0 0 0 0.783333 0 0 0 1 0"/>
<feBlend mode="normal" in2="BackgroundImageFix" result="effect1_dropShadow"/>
<feColorMatrix in="SourceAlpha" type="matrix" values="0 0 0 0 0 0 0 0 0 0 0 0 0 0 0 0 0 0 127 0"/>
<feOffset dx="2" dy="2"/>
<feGaussianBlur stdDeviation="2.5"/>
<feColorMatrix type="matrix" values="0 0 0 0 0.592969 0 0 0 0 0.667599 0 0 0 0 0.6875 0 0 0 1 0"/>
<feBlend mode="normal" in2="effect1_dropShadow" result="effect2_dropShadow"/>
<feColorMatrix in="SourceAlpha" type="matrix" values="0 0 0 0 0 0 0 0 0 0 0 0 0 0 0 0 0 0 127 0"/>
<feOffset dx="-3" dy="-3"/>
<feGaussianBlur stdDeviation="5"/>
<feColorMatrix type="matrix" values="0 0 0 0 0.867188 0 0 0 0 0.912829 0 0 0 0 0.925 0 0 0 1 0"/>
<feBlend mode="normal" in2="effect2_dropShadow" result="effect3_dropShadow"/>
<feColorMatrix in="SourceAlpha" type="matrix" values="0 0 0 0 0 0 0 0 0 0 0 0 0 0 0 0 0 0 127 0"/>
<feOffset dx="-1" dy="-1"/>
<feGaussianBlur stdDeviation="0.5"/>
<feColorMatrix type="matrix" values="0 0 0 0 0.914201 0 0 0 0 0.935884 0 0 0 0 0.941667 0 0 0 1 0"/>
<feBlend mode="normal" in2="effect3_dropShadow" result="effect4_dropShadow"/>
<feBlend mode="normal" in="SourceGraphic" in2="effect4_dropShadow" result="shape"/>
</filter>
<filter id="filter4_dddd" x="0.234375" y="223.999" width="43" height="43" filterUnits="userSpaceOnUse" color-interpolation-filters="sRGB">
<feFlood flood-opacity="0" result="BackgroundImageFix"/>
<feColorMatrix in="SourceAlpha" type="matrix" values="0 0 0 0 0 0 0 0 0 0 0 0 0 0 0 0 0 0 127 0"/>
<feOffset dx="5" dy="5"/>
<feGaussianBlur stdDeviation="5"/>
<feColorMatrix type="matrix" values="0 0 0 0 0.685417 0 0 0 0 0.762719 0 0 0 0 0.783333 0 0 0 1 0"/>
<feBlend mode="normal" in2="BackgroundImageFix" result="effect1_dropShadow"/>
<feColorMatrix in="SourceAlpha" type="matrix" values="0 0 0 0 0 0 0 0 0 0 0 0 0 0 0 0 0 0 127 0"/>
<feOffset dx="2" dy="2"/>
<feGaussianBlur stdDeviation="2.5"/>
<feColorMatrix type="matrix" values="0 0 0 0 0.592969 0 0 0 0 0.667599 0 0 0 0 0.6875 0 0 0 1 0"/>
<feBlend mode="normal" in2="effect1_dropShadow" result="effect2_dropShadow"/>
<feColorMatrix in="SourceAlpha" type="matrix" values="0 0 0 0 0 0 0 0 0 0 0 0 0 0 0 0 0 0 127 0"/>
<feOffset dx="-3" dy="-3"/>
<feGaussianBlur stdDeviation="5"/>
<feColorMatrix type="matrix" values="0 0 0 0 0.867188 0 0 0 0 0.912829 0 0 0 0 0.925 0 0 0 1 0"/>
<feBlend mode="normal" in2="effect2_dropShadow" result="effect3_dropShadow"/>
<feColorMatrix in="SourceAlpha" type="matrix" values="0 0 0 0 0 0 0 0 0 0 0 0 0 0 0 0 0 0 127 0"/>
<feOffset dx="-1" dy="-1"/>
<feGaussianBlur stdDeviation="0.5"/>
<feColorMatrix type="matrix" values="0 0 0 0 0.914201 0 0 0 0 0.935884 0 0 0 0 0.941667 0 0 0 1 0"/>
<feBlend mode="normal" in2="effect3_dropShadow" result="effect4_dropShadow"/>
<feBlend mode="normal" in="SourceGraphic" in2="effect4_dropShadow" result="shape"/>
</filter>
</defs>
</svg>
