<svg viewBox="0 0 286 118" fill="none" xmlns="http://www.w3.org/2000/svg">
<path d="M152.156 42.5885C152.156 48.9635 150.721 54.6213 147.853 59.5619C145.064 64.4229 141.239 68.2479 136.378 71.0369C131.596 73.826 126.217 75.2205 120.241 75.2205C114.264 75.2205 108.845 73.826 103.984 71.0369C99.1233 68.2479 95.2585 64.4229 92.3897 59.5619C89.6006 54.6213 88.2061 48.9635 88.2061 42.5885C88.2061 36.2135 89.6006 30.5955 92.3897 25.7346C95.2585 20.794 99.1233 16.9291 103.984 14.14C108.845 11.351 114.264 9.95645 120.241 9.95645C126.217 9.95645 131.596 11.351 136.378 14.14C141.239 16.9291 145.064 20.794 147.853 25.7346C150.721 30.5955 152.156 36.2135 152.156 42.5885ZM139.605 42.5885C139.685 38.365 138.848 34.6596 137.095 31.4721C135.421 28.2049 133.11 25.6947 130.162 23.9416C127.213 22.1088 123.906 21.1924 120.241 21.1924C116.575 21.1924 113.228 22.1088 110.2 23.9416C107.252 25.6947 104.901 28.2049 103.148 31.4721C101.474 34.6596 100.677 38.365 100.757 42.5885C100.677 46.7322 101.474 50.4377 103.148 53.7049C104.901 56.8924 107.252 59.4025 110.2 61.2354C113.228 63.0682 116.575 63.9846 120.241 63.9846C123.906 63.9846 127.213 63.0682 130.162 61.2354C133.11 59.4025 135.421 56.8924 137.095 53.7049C138.848 50.4377 139.685 46.7322 139.605 42.5885Z" fill="#203C44"/>
<path d="M208.364 49.0432V11.2713H220.676V74.0252H208.364V63.9846C206.531 66.933 203.822 69.5627 200.236 71.8736C196.73 74.1049 192.506 75.2205 187.565 75.2205C181.031 75.2205 175.732 72.9893 171.668 68.5268C167.604 64.0643 165.572 57.8885 165.572 49.9994V11.2713H177.883V46.6525C177.883 49.84 178.361 52.7885 179.318 55.4979C180.354 58.2072 181.947 60.3986 184.099 62.0721C186.33 63.6658 189.159 64.4627 192.586 64.4627C196.889 64.4627 200.594 63.108 203.702 60.3986C206.81 57.6893 208.364 53.9041 208.364 49.0432Z" fill="#203C44"/>
<path d="M273.087 24.5393C272.29 24.1408 271.294 23.8221 270.099 23.583C268.983 23.2643 267.788 23.1049 266.513 23.1049C263.963 23.1049 261.453 23.7822 258.982 25.1369C256.512 26.4119 254.44 28.2846 252.767 30.7549C251.173 33.1455 250.376 36.0143 250.376 39.3611V74.0252H237.945V11.2713H250.376V23.1049C252.129 19.2799 254.759 16.1322 258.265 13.6619C261.851 11.1916 265.596 9.95645 269.501 9.95645C272.45 9.95645 274.721 10.3549 276.314 11.1518L273.087 24.5393Z" fill="#203C44"/>
<path d="M277.517 75.3401C274.728 75.3401 272.656 74.5432 271.302 72.9494C269.947 71.276 269.27 69.0846 269.27 66.3752C269.27 64.0643 269.947 61.9924 271.302 60.1596C272.656 58.3268 274.728 57.4104 277.517 57.4104C280.306 57.4104 282.378 58.2471 283.733 59.9205C285.088 61.5143 285.765 63.6658 285.765 66.3752C285.765 68.6065 285.088 70.6783 283.733 72.5908C282.378 74.4237 280.306 75.3401 277.517 75.3401Z" fill="#203C44"/>
<path d="M36.582 74.0252L0.455078 0.900177H14.3771L50.5884 74.0252H36.582Z" fill="#203C44"/>
<path d="M14.8406 117.9L72.7786 0.900177H86.7006L28.9032 117.9H14.8406Z" fill="#F4FDFF"/>
</svg>
